<mxfile host="Electron" modified="2024-05-15T11:46:21.967Z" agent="Mozilla/5.0 (Windows NT 10.0; Win64; x64) AppleWebKit/537.36 (KHTML, like Gecko) draw.io/22.0.3 Chrome/114.0.5735.289 Electron/25.8.4 Safari/537.36" etag="dbTBKo9CH1RbiOrn02wR" version="22.0.3" type="device">
  <diagram name="2_вариант" id="KaJbvHIl9QkDrgiP7Ll-">
    <mxGraphModel dx="1050" dy="629" grid="1" gridSize="10" guides="1" tooltips="1" connect="1" arrows="1" fold="1" page="1" pageScale="1" pageWidth="827" pageHeight="1169" math="0" shadow="0">
      <root>
        <mxCell id="D_uYwFRAaTXDprufjJ8l-0" />
        <mxCell id="D_uYwFRAaTXDprufjJ8l-1" parent="D_uYwFRAaTXDprufjJ8l-0" />
        <mxCell id="D_uYwFRAaTXDprufjJ8l-11" value="Owner" style="shape=table;startSize=30;container=1;collapsible=1;childLayout=tableLayout;fixedRows=1;rowLines=0;fontStyle=1;align=center;resizeLast=1;" parent="D_uYwFRAaTXDprufjJ8l-1" vertex="1">
          <mxGeometry x="360" y="40" width="180" height="150" as="geometry" />
        </mxCell>
        <mxCell id="D_uYwFRAaTXDprufjJ8l-12" value="" style="shape=tableRow;horizontal=0;startSize=0;swimlaneHead=0;swimlaneBody=0;fillColor=none;collapsible=0;dropTarget=0;points=[[0,0.5],[1,0.5]];portConstraint=eastwest;top=0;left=0;right=0;bottom=1;" parent="D_uYwFRAaTXDprufjJ8l-11" vertex="1">
          <mxGeometry y="30" width="180" height="30" as="geometry" />
        </mxCell>
        <mxCell id="D_uYwFRAaTXDprufjJ8l-13" value="PK" style="shape=partialRectangle;connectable=0;fillColor=none;top=0;left=0;bottom=0;right=0;fontStyle=1;overflow=hidden;" parent="D_uYwFRAaTXDprufjJ8l-12" vertex="1">
          <mxGeometry width="30" height="30" as="geometry">
            <mxRectangle width="30" height="30" as="alternateBounds" />
          </mxGeometry>
        </mxCell>
        <mxCell id="D_uYwFRAaTXDprufjJ8l-14" value="_id ObjectId() NOT NULL" style="shape=partialRectangle;connectable=0;fillColor=none;top=0;left=0;bottom=0;right=0;align=left;spacingLeft=6;fontStyle=5;overflow=hidden;" parent="D_uYwFRAaTXDprufjJ8l-12" vertex="1">
          <mxGeometry x="30" width="150" height="30" as="geometry">
            <mxRectangle width="150" height="30" as="alternateBounds" />
          </mxGeometry>
        </mxCell>
        <mxCell id="D_uYwFRAaTXDprufjJ8l-15" value="" style="shape=tableRow;horizontal=0;startSize=0;swimlaneHead=0;swimlaneBody=0;fillColor=none;collapsible=0;dropTarget=0;points=[[0,0.5],[1,0.5]];portConstraint=eastwest;top=0;left=0;right=0;bottom=0;" parent="D_uYwFRAaTXDprufjJ8l-11" vertex="1">
          <mxGeometry y="60" width="180" height="30" as="geometry" />
        </mxCell>
        <mxCell id="D_uYwFRAaTXDprufjJ8l-16" value="" style="shape=partialRectangle;connectable=0;fillColor=none;top=0;left=0;bottom=0;right=0;editable=1;overflow=hidden;" parent="D_uYwFRAaTXDprufjJ8l-15" vertex="1">
          <mxGeometry width="30" height="30" as="geometry">
            <mxRectangle width="30" height="30" as="alternateBounds" />
          </mxGeometry>
        </mxCell>
        <mxCell id="D_uYwFRAaTXDprufjJ8l-17" value="patromym string" style="shape=partialRectangle;connectable=0;top=0;left=0;bottom=0;right=0;align=left;spacingLeft=6;overflow=hidden;" parent="D_uYwFRAaTXDprufjJ8l-15" vertex="1">
          <mxGeometry x="30" width="150" height="30" as="geometry">
            <mxRectangle width="150" height="30" as="alternateBounds" />
          </mxGeometry>
        </mxCell>
        <mxCell id="D_uYwFRAaTXDprufjJ8l-18" value="" style="shape=tableRow;horizontal=0;startSize=0;swimlaneHead=0;swimlaneBody=0;fillColor=none;collapsible=0;dropTarget=0;points=[[0,0.5],[1,0.5]];portConstraint=eastwest;top=0;left=0;right=0;bottom=0;" parent="D_uYwFRAaTXDprufjJ8l-11" vertex="1">
          <mxGeometry y="90" width="180" height="30" as="geometry" />
        </mxCell>
        <mxCell id="D_uYwFRAaTXDprufjJ8l-19" value="" style="shape=partialRectangle;connectable=0;fillColor=none;top=0;left=0;bottom=0;right=0;editable=1;overflow=hidden;" parent="D_uYwFRAaTXDprufjJ8l-18" vertex="1">
          <mxGeometry width="30" height="30" as="geometry">
            <mxRectangle width="30" height="30" as="alternateBounds" />
          </mxGeometry>
        </mxCell>
        <mxCell id="D_uYwFRAaTXDprufjJ8l-20" value="name string" style="shape=partialRectangle;connectable=0;top=0;left=0;bottom=0;right=0;align=left;spacingLeft=6;overflow=hidden;" parent="D_uYwFRAaTXDprufjJ8l-18" vertex="1">
          <mxGeometry x="30" width="150" height="30" as="geometry">
            <mxRectangle width="150" height="30" as="alternateBounds" />
          </mxGeometry>
        </mxCell>
        <mxCell id="D_uYwFRAaTXDprufjJ8l-21" value="" style="shape=tableRow;horizontal=0;startSize=0;swimlaneHead=0;swimlaneBody=0;fillColor=none;collapsible=0;dropTarget=0;points=[[0,0.5],[1,0.5]];portConstraint=eastwest;top=0;left=0;right=0;bottom=0;" parent="D_uYwFRAaTXDprufjJ8l-11" vertex="1">
          <mxGeometry y="120" width="180" height="30" as="geometry" />
        </mxCell>
        <mxCell id="D_uYwFRAaTXDprufjJ8l-22" value="" style="shape=partialRectangle;connectable=0;fillColor=none;top=0;left=0;bottom=0;right=0;editable=1;overflow=hidden;" parent="D_uYwFRAaTXDprufjJ8l-21" vertex="1">
          <mxGeometry width="30" height="30" as="geometry">
            <mxRectangle width="30" height="30" as="alternateBounds" />
          </mxGeometry>
        </mxCell>
        <mxCell id="D_uYwFRAaTXDprufjJ8l-23" value="surname string" style="shape=partialRectangle;connectable=0;top=0;left=0;bottom=0;right=0;align=left;spacingLeft=6;overflow=hidden;" parent="D_uYwFRAaTXDprufjJ8l-21" vertex="1">
          <mxGeometry x="30" width="150" height="30" as="geometry">
            <mxRectangle width="150" height="30" as="alternateBounds" />
          </mxGeometry>
        </mxCell>
        <mxCell id="FYzZRFr4gbbD_EFlShv3-0" value="Meter_type" style="shape=table;startSize=30;container=1;collapsible=1;childLayout=tableLayout;fixedRows=1;rowLines=0;fontStyle=1;align=center;resizeLast=1;" parent="D_uYwFRAaTXDprufjJ8l-1" vertex="1">
          <mxGeometry x="360" y="240" width="180" height="90" as="geometry" />
        </mxCell>
        <mxCell id="FYzZRFr4gbbD_EFlShv3-1" value="" style="shape=tableRow;horizontal=0;startSize=0;swimlaneHead=0;swimlaneBody=0;fillColor=none;collapsible=0;dropTarget=0;points=[[0,0.5],[1,0.5]];portConstraint=eastwest;top=0;left=0;right=0;bottom=1;" parent="FYzZRFr4gbbD_EFlShv3-0" vertex="1">
          <mxGeometry y="30" width="180" height="30" as="geometry" />
        </mxCell>
        <mxCell id="FYzZRFr4gbbD_EFlShv3-2" value="PK" style="shape=partialRectangle;connectable=0;fillColor=none;top=0;left=0;bottom=0;right=0;fontStyle=1;overflow=hidden;" parent="FYzZRFr4gbbD_EFlShv3-1" vertex="1">
          <mxGeometry width="30" height="30" as="geometry">
            <mxRectangle width="30" height="30" as="alternateBounds" />
          </mxGeometry>
        </mxCell>
        <mxCell id="FYzZRFr4gbbD_EFlShv3-3" value="_id ObjectId() NOT NULL" style="shape=partialRectangle;connectable=0;fillColor=none;top=0;left=0;bottom=0;right=0;align=left;spacingLeft=6;fontStyle=5;overflow=hidden;" parent="FYzZRFr4gbbD_EFlShv3-1" vertex="1">
          <mxGeometry x="30" width="150" height="30" as="geometry">
            <mxRectangle width="150" height="30" as="alternateBounds" />
          </mxGeometry>
        </mxCell>
        <mxCell id="FYzZRFr4gbbD_EFlShv3-4" value="" style="shape=tableRow;horizontal=0;startSize=0;swimlaneHead=0;swimlaneBody=0;fillColor=none;collapsible=0;dropTarget=0;points=[[0,0.5],[1,0.5]];portConstraint=eastwest;top=0;left=0;right=0;bottom=0;" parent="FYzZRFr4gbbD_EFlShv3-0" vertex="1">
          <mxGeometry y="60" width="180" height="30" as="geometry" />
        </mxCell>
        <mxCell id="FYzZRFr4gbbD_EFlShv3-5" value="" style="shape=partialRectangle;connectable=0;fillColor=none;top=0;left=0;bottom=0;right=0;editable=1;overflow=hidden;" parent="FYzZRFr4gbbD_EFlShv3-4" vertex="1">
          <mxGeometry width="30" height="30" as="geometry">
            <mxRectangle width="30" height="30" as="alternateBounds" />
          </mxGeometry>
        </mxCell>
        <mxCell id="FYzZRFr4gbbD_EFlShv3-6" value="type string" style="shape=partialRectangle;connectable=0;top=0;left=0;bottom=0;right=0;align=left;spacingLeft=6;overflow=hidden;" parent="FYzZRFr4gbbD_EFlShv3-4" vertex="1">
          <mxGeometry x="30" width="150" height="30" as="geometry">
            <mxRectangle width="150" height="30" as="alternateBounds" />
          </mxGeometry>
        </mxCell>
        <mxCell id="FYzZRFr4gbbD_EFlShv3-13" value="Floor" style="shape=table;startSize=30;container=1;collapsible=1;childLayout=tableLayout;fixedRows=1;rowLines=0;fontStyle=1;align=center;resizeLast=1;" parent="D_uYwFRAaTXDprufjJ8l-1" vertex="1">
          <mxGeometry x="40" y="40" width="260" height="370" as="geometry" />
        </mxCell>
        <mxCell id="FYzZRFr4gbbD_EFlShv3-14" value="" style="shape=tableRow;horizontal=0;startSize=0;swimlaneHead=0;swimlaneBody=0;fillColor=none;collapsible=0;dropTarget=0;points=[[0,0.5],[1,0.5]];portConstraint=eastwest;top=0;left=0;right=0;bottom=1;" parent="FYzZRFr4gbbD_EFlShv3-13" vertex="1">
          <mxGeometry y="30" width="260" height="30" as="geometry" />
        </mxCell>
        <mxCell id="FYzZRFr4gbbD_EFlShv3-15" value="PK" style="shape=partialRectangle;connectable=0;fillColor=none;top=0;left=0;bottom=0;right=0;fontStyle=1;overflow=hidden;" parent="FYzZRFr4gbbD_EFlShv3-14" vertex="1">
          <mxGeometry width="30" height="30" as="geometry">
            <mxRectangle width="30" height="30" as="alternateBounds" />
          </mxGeometry>
        </mxCell>
        <mxCell id="FYzZRFr4gbbD_EFlShv3-16" value="_id ObjectId() NOT NULL" style="shape=partialRectangle;connectable=0;fillColor=none;top=0;left=0;bottom=0;right=0;align=left;spacingLeft=6;fontStyle=5;overflow=hidden;" parent="FYzZRFr4gbbD_EFlShv3-14" vertex="1">
          <mxGeometry x="30" width="230" height="30" as="geometry">
            <mxRectangle width="230" height="30" as="alternateBounds" />
          </mxGeometry>
        </mxCell>
        <mxCell id="FYzZRFr4gbbD_EFlShv3-17" value="" style="shape=tableRow;horizontal=0;startSize=0;swimlaneHead=0;swimlaneBody=0;fillColor=none;collapsible=0;dropTarget=0;points=[[0,0.5],[1,0.5]];portConstraint=eastwest;top=0;left=0;right=0;bottom=0;" parent="FYzZRFr4gbbD_EFlShv3-13" vertex="1">
          <mxGeometry y="60" width="260" height="30" as="geometry" />
        </mxCell>
        <mxCell id="FYzZRFr4gbbD_EFlShv3-18" value="" style="shape=partialRectangle;connectable=0;fillColor=none;top=0;left=0;bottom=0;right=0;editable=1;overflow=hidden;" parent="FYzZRFr4gbbD_EFlShv3-17" vertex="1">
          <mxGeometry width="30" height="30" as="geometry">
            <mxRectangle width="30" height="30" as="alternateBounds" />
          </mxGeometry>
        </mxCell>
        <mxCell id="FYzZRFr4gbbD_EFlShv3-19" value="floor_number int" style="shape=partialRectangle;connectable=0;top=0;left=0;bottom=0;right=0;align=left;spacingLeft=6;overflow=hidden;" parent="FYzZRFr4gbbD_EFlShv3-17" vertex="1">
          <mxGeometry x="30" width="230" height="30" as="geometry">
            <mxRectangle width="230" height="30" as="alternateBounds" />
          </mxGeometry>
        </mxCell>
        <mxCell id="FYzZRFr4gbbD_EFlShv3-20" value="" style="shape=tableRow;horizontal=0;startSize=0;swimlaneHead=0;swimlaneBody=0;fillColor=none;collapsible=0;dropTarget=0;points=[[0,0.5],[1,0.5]];portConstraint=eastwest;top=0;left=0;right=0;bottom=0;" parent="FYzZRFr4gbbD_EFlShv3-13" vertex="1">
          <mxGeometry y="90" width="260" height="280" as="geometry" />
        </mxCell>
        <mxCell id="FYzZRFr4gbbD_EFlShv3-21" value="" style="shape=partialRectangle;connectable=0;fillColor=none;top=0;left=0;bottom=0;right=0;editable=1;overflow=hidden;" parent="FYzZRFr4gbbD_EFlShv3-20" vertex="1">
          <mxGeometry width="30" height="280" as="geometry">
            <mxRectangle width="30" height="280" as="alternateBounds" />
          </mxGeometry>
        </mxCell>
        <mxCell id="FYzZRFr4gbbD_EFlShv3-22" value="flats [&#xa;        {&#xa;           _id ObjectId() NOT NULL&#xa;           is_c_p bool&#xa;           number_of_rooms int                     &#xa;           area double&#xa;           living_space double&#xa;           owner_id [&#xa;                           ObjectId()&#xa;           ]&#xa;           meters [&#xa;                       {&#xa;                        _id ObjectId()&#xa;                        value double&#xa;                        meter_type_id ObjectId()&#xa;                       }&#xa;           ]&#xa;          }&#xa;]" style="shape=partialRectangle;connectable=0;top=0;left=0;bottom=0;right=0;align=left;spacingLeft=6;overflow=hidden;" parent="FYzZRFr4gbbD_EFlShv3-20" vertex="1">
          <mxGeometry x="30" width="230" height="280" as="geometry">
            <mxRectangle width="230" height="280" as="alternateBounds" />
          </mxGeometry>
        </mxCell>
        <mxCell id="FYzZRFr4gbbD_EFlShv3-23" value="" style="endArrow=none;html=1;rounded=0;exitX=1;exitY=0.5;exitDx=0;exitDy=0;entryX=0;entryY=0.25;entryDx=0;entryDy=0;" parent="D_uYwFRAaTXDprufjJ8l-1" source="FYzZRFr4gbbD_EFlShv3-17" target="D_uYwFRAaTXDprufjJ8l-11" edge="1">
          <mxGeometry width="50" height="50" relative="1" as="geometry">
            <mxPoint x="520" y="360" as="sourcePoint" />
            <mxPoint x="520" y="250" as="targetPoint" />
          </mxGeometry>
        </mxCell>
        <mxCell id="FYzZRFr4gbbD_EFlShv3-24" value="" style="endArrow=none;html=1;rounded=0;exitX=1;exitY=0.5;exitDx=0;exitDy=0;entryX=0;entryY=0.5;entryDx=0;entryDy=0;" parent="D_uYwFRAaTXDprufjJ8l-1" source="FYzZRFr4gbbD_EFlShv3-13" target="FYzZRFr4gbbD_EFlShv3-1" edge="1">
          <mxGeometry width="50" height="50" relative="1" as="geometry">
            <mxPoint x="310" y="125" as="sourcePoint" />
            <mxPoint x="370" y="88" as="targetPoint" />
          </mxGeometry>
        </mxCell>
      </root>
    </mxGraphModel>
  </diagram>
</mxfile>
